<svg width="121" height="38" viewBox="0 0 121 38" fill="none" xmlns="http://www.w3.org/2000/svg">
<rect width="121" height="38" rx="19" fill="#576CE9"/>
<path d="M25.176 11.8H34.6V13.48H30.776V23H28.984V13.48H25.176V11.8ZM37.0476 14.728C38.0076 14.728 38.7543 14.984 39.2876 15.496C39.821 15.9973 40.0876 16.7227 40.0876 17.672V23H38.5836L38.5036 21.944C38.0236 22.7653 37.229 23.176 36.1196 23.176C35.3836 23.176 34.797 22.968 34.3596 22.552C33.9223 22.136 33.7036 21.576 33.7036 20.872C33.7036 19.5813 34.493 18.7867 36.0716 18.488L38.3756 18.072V17.704C38.3756 16.7333 37.933 16.248 37.0476 16.248C36.621 16.248 36.269 16.3653 35.9916 16.6C35.725 16.8347 35.5916 17.144 35.5916 17.528H33.9436C33.9756 16.728 34.2743 16.0613 34.8396 15.528C35.405 14.9947 36.141 14.728 37.0476 14.728ZM38.3756 19.64V19.352L36.4396 19.768C35.757 19.9067 35.4156 20.248 35.4156 20.792C35.4156 21.0693 35.5116 21.2933 35.7036 21.464C35.8956 21.624 36.1676 21.704 36.5196 21.704C37.1703 21.704 37.661 21.4427 37.9916 20.92C38.2476 20.5573 38.3756 20.1307 38.3756 19.64ZM42.2781 11.32H43.9741V23H42.2781V11.32ZM46.4039 11.32H48.0999V18.472L50.8199 14.904H52.8679L50.3719 18.28L53.2839 23H51.3479L49.1719 19.592L48.0999 20.92V23H46.4039V11.32ZM56.8635 11.8H66.2875V13.48H62.4635V23H60.6715V13.48H56.8635V11.8ZM66.587 15.912C67.3763 15.1227 68.3737 14.728 69.579 14.728C70.7843 14.728 71.7817 15.1227 72.571 15.912C73.3603 16.7013 73.755 17.7147 73.755 18.952C73.755 20.1893 73.3603 21.2027 72.571 21.992C71.7817 22.7813 70.7843 23.176 69.579 23.176C68.3737 23.176 67.3763 22.7813 66.587 21.992C65.8083 21.2133 65.419 20.2 65.419 18.952C65.419 17.704 65.8083 16.6907 66.587 15.912ZM71.323 17.048C70.8857 16.5467 70.3097 16.296 69.595 16.296C68.8803 16.296 68.299 16.5467 67.851 17.048C67.403 17.5387 67.179 18.1733 67.179 18.952C67.179 19.7307 67.403 20.3653 67.851 20.856C68.299 21.3573 68.8803 21.608 69.595 21.608C70.3097 21.608 70.8857 21.3573 71.323 20.856C71.771 20.3653 71.995 19.7307 71.995 18.952C71.995 18.1733 71.771 17.5387 71.323 17.048ZM85.7073 11.8H87.5153V18.536C87.5153 20.0293 87.1259 21.1813 86.3472 21.992C85.5686 22.8027 84.4699 23.208 83.0513 23.208C81.6326 23.208 80.5339 22.8027 79.7553 21.992C78.9766 21.1813 78.5872 20.0293 78.5872 18.536V11.8H80.3793V18.536C80.3793 20.5307 81.2699 21.528 83.0513 21.528C84.8219 21.528 85.7073 20.5307 85.7073 18.536V11.8ZM92.1621 14.728C92.9621 14.728 93.6235 14.9627 94.1461 15.432C94.6688 15.8907 94.9408 16.5093 94.9621 17.288H93.2661C93.2555 16.552 92.8768 16.184 92.1301 16.184C91.7888 16.184 91.5221 16.2693 91.3301 16.44C91.1488 16.6107 91.0581 16.84 91.0581 17.128C91.0581 17.416 91.1595 17.6347 91.3621 17.784C91.5648 17.9333 91.9541 18.072 92.5301 18.2C93.4795 18.392 94.1568 18.68 94.5621 19.064C94.9675 19.4373 95.1701 19.96 95.1701 20.632C95.1701 21.4213 94.8981 22.0453 94.3541 22.504C93.8101 22.952 93.0955 23.176 92.2101 23.176C91.2715 23.176 90.5301 22.9413 89.9861 22.472C89.4528 22.0027 89.1755 21.3627 89.1541 20.552H90.8661C90.8768 20.9253 90.9995 21.2187 91.2341 21.432C91.4795 21.6347 91.8155 21.736 92.2421 21.736C92.6261 21.736 92.9248 21.6507 93.1381 21.48C93.3515 21.3093 93.4581 21.08 93.4581 20.792C93.4581 20.472 93.3461 20.232 93.1221 20.072C92.8981 19.9013 92.4821 19.752 91.8741 19.624C90.9995 19.4427 90.3595 19.1653 89.9541 18.792C89.5488 18.4187 89.3461 17.912 89.3461 17.272C89.3461 16.568 89.5915 15.9707 90.0821 15.48C90.5835 14.9787 91.2768 14.728 92.1621 14.728Z" fill="white"/>
</svg>
