<svg width="121" height="42" viewBox="0 0 121 42" fill="none" xmlns="http://www.w3.org/2000/svg">
<rect width="121" height="42" rx="21" fill="#576CE9"/>
<path d="M29.208 13.592C30.2107 13.592 31 13.8693 31.576 14.424C32.1627 14.968 32.4667 15.7467 32.488 16.76H31.016C31.0053 16.184 30.8347 15.7307 30.504 15.4C30.1733 15.0693 29.7307 14.904 29.176 14.904C28.6427 14.904 28.2213 15.0533 27.912 15.352C27.6027 15.6507 27.448 16.0667 27.448 16.6C27.448 17.1013 27.6027 17.4907 27.912 17.768C28.2427 18.0347 28.8293 18.3333 29.672 18.664C30.8347 19.1013 31.6507 19.5547 32.12 20.024C32.6 20.504 32.84 21.1493 32.84 21.96C32.84 22.952 32.52 23.7413 31.88 24.328C31.2507 24.9147 30.4133 25.208 29.368 25.208C28.2267 25.208 27.3253 24.8933 26.664 24.264C26.0133 23.6347 25.6773 22.7813 25.656 21.704H27.128C27.1387 22.408 27.3413 22.952 27.736 23.336C28.1307 23.72 28.68 23.912 29.384 23.912C30.0133 23.912 30.4987 23.7467 30.84 23.416C31.192 23.0747 31.368 22.6213 31.368 22.056C31.368 21.5867 31.192 21.2027 30.84 20.904C30.488 20.5947 29.88 20.2907 29.016 19.992C27.9813 19.608 27.2133 19.1813 26.712 18.712C26.2213 18.232 25.976 17.5653 25.976 16.712C25.976 15.816 26.2587 15.0693 26.824 14.472C27.4 13.8853 28.1947 13.592 29.208 13.592ZM39.3091 16.936H40.6851V25H39.4531L39.3731 23.896C38.9678 24.7493 38.2265 25.176 37.1491 25.176C36.3171 25.176 35.6771 24.9093 35.2291 24.376C34.7811 23.832 34.5571 23.0907 34.5571 22.152V16.936H35.9331V21.928C35.9331 22.5573 36.0665 23.0373 36.3331 23.368C36.5998 23.688 36.9785 23.848 37.4691 23.848C38.0131 23.848 38.4558 23.6293 38.7971 23.192C39.1385 22.7547 39.3091 22.1627 39.3091 21.416V16.936ZM43.1223 13.32H44.4983V18.04C45.0636 17.1867 45.9596 16.76 47.1863 16.76C48.3169 16.76 49.2236 17.16 49.9062 17.96C50.6103 18.76 50.9623 19.7627 50.9623 20.968C50.9623 22.1733 50.6156 23.1813 49.9223 23.992C49.2289 24.7813 48.3223 25.176 47.2023 25.176C45.9756 25.176 45.0529 24.7227 44.4343 23.816L44.3543 25H43.1223V13.32ZM46.9783 18.072C46.3063 18.072 45.7196 18.3387 45.2183 18.872C44.7276 19.3947 44.4823 20.0933 44.4823 20.968V21.048C44.4823 21.8907 44.7276 22.5733 45.2183 23.096C45.7089 23.6187 46.3009 23.88 46.9943 23.88C47.7623 23.88 48.3756 23.6133 48.8343 23.08C49.3036 22.536 49.5383 21.832 49.5383 20.968C49.5383 20.1147 49.2983 19.4213 48.8183 18.888C48.3383 18.344 47.7249 18.072 46.9783 18.072ZM55.0196 16.76C55.7876 16.76 56.417 16.9947 56.9076 17.464C57.3983 17.9227 57.6543 18.536 57.6756 19.304H56.2676C56.257 18.4613 55.8303 18.04 54.9876 18.04C54.593 18.04 54.289 18.1413 54.0756 18.344C53.8623 18.536 53.7556 18.7973 53.7556 19.128C53.7556 19.448 53.857 19.688 54.0596 19.848C54.273 20.008 54.6783 20.1573 55.2756 20.296C56.2356 20.52 56.913 20.8187 57.3076 21.192C57.713 21.5547 57.9156 22.0613 57.9156 22.712C57.9156 23.4693 57.6543 24.072 57.1316 24.52C56.609 24.9573 55.9263 25.176 55.0836 25.176C54.177 25.176 53.4623 24.9413 52.9396 24.472C52.4276 24.0027 52.161 23.3627 52.1396 22.552H53.5476C53.5583 23.448 54.081 23.896 55.1156 23.896C55.553 23.896 55.8943 23.8 56.1396 23.608C56.385 23.4053 56.5076 23.1387 56.5076 22.808C56.5076 22.4667 56.3903 22.2053 56.1556 22.024C55.921 21.832 55.4783 21.6613 54.8276 21.512C53.953 21.3093 53.3183 21.032 52.9236 20.68C52.5396 20.328 52.3476 19.8373 52.3476 19.208C52.3476 18.5253 52.5823 17.9493 53.0516 17.48C53.5316 17 54.1876 16.76 55.0196 16.76ZM63.0581 16.76C63.9755 16.76 64.7541 16.9947 65.3941 17.464C66.0341 17.9333 66.4501 18.5947 66.6421 19.448H65.2661C65.1061 19 64.8288 18.6533 64.4341 18.408C64.0501 18.1627 63.5968 18.04 63.0741 18.04C62.3488 18.04 61.7461 18.3173 61.2661 18.872C60.7968 19.4373 60.5621 20.1413 60.5621 20.984C60.5621 21.8053 60.8021 22.4987 61.2821 23.064C61.7621 23.6187 62.3701 23.896 63.1061 23.896C63.6181 23.896 64.0715 23.768 64.4661 23.512C64.8608 23.256 65.1275 22.9147 65.2661 22.488H66.6581C66.4448 23.3413 66.0181 24.0027 65.3781 24.472C64.7381 24.9413 63.9648 25.176 63.0581 25.176C61.9168 25.176 60.9781 24.7813 60.2421 23.992C59.5061 23.2133 59.1381 22.2107 59.1381 20.984C59.1381 19.768 59.5061 18.76 60.2421 17.96C60.9995 17.16 61.9381 16.76 63.0581 16.76ZM72.3373 16.856V18.232C71.6759 18.232 71.1319 18.4293 70.7053 18.824C70.2359 19.2507 69.9906 19.8853 69.9693 20.728V25H68.5933V16.936H69.8253L69.9213 18.344C70.0813 17.9067 70.3693 17.5493 70.7853 17.272C71.2119 16.9947 71.7293 16.856 72.3373 16.856ZM75.6308 14.456C75.6308 14.712 75.5348 14.9307 75.3428 15.112C75.1614 15.2933 74.9374 15.384 74.6708 15.384C74.4041 15.384 74.1801 15.2933 73.9988 15.112C73.8174 14.9307 73.7268 14.712 73.7268 14.456C73.7268 14.1893 73.8174 13.9653 73.9988 13.784C74.1801 13.6027 74.4041 13.512 74.6708 13.512C74.9374 13.512 75.1614 13.6027 75.3428 13.784C75.5348 13.9653 75.6308 14.1893 75.6308 14.456ZM73.9828 16.936H75.3588V25H73.9828V16.936ZM77.841 13.32H79.217V18.04C79.7823 17.1867 80.6783 16.76 81.905 16.76C83.0357 16.76 83.9423 17.16 84.625 17.96C85.329 18.76 85.681 19.7627 85.681 20.968C85.681 22.1733 85.3343 23.1813 84.641 23.992C83.9477 24.7813 83.041 25.176 81.921 25.176C80.6943 25.176 79.7717 24.7227 79.153 23.816L79.073 25H77.841V13.32ZM81.697 18.072C81.025 18.072 80.4383 18.3387 79.937 18.872C79.4463 19.3947 79.201 20.0933 79.201 20.968V21.048C79.201 21.8907 79.4463 22.5733 79.937 23.096C80.4277 23.6187 81.0197 23.88 81.713 23.88C82.481 23.88 83.0943 23.6133 83.553 23.08C84.0223 22.536 84.257 21.832 84.257 20.968C84.257 20.1147 84.017 19.4213 83.537 18.888C83.057 18.344 82.4437 18.072 81.697 18.072ZM90.8699 16.76C91.9899 16.76 92.8805 17.1173 93.5419 17.832C94.2032 18.5467 94.5339 19.5547 94.5339 20.856V21.512H88.4059C88.4592 22.248 88.7099 22.8293 89.1579 23.256C89.6165 23.6827 90.1979 23.896 90.9019 23.896C92.0219 23.896 92.7472 23.4587 93.0779 22.584H94.4539C94.1979 23.4053 93.7605 24.0453 93.1419 24.504C92.5339 24.952 91.7765 25.176 90.8699 25.176C89.7179 25.176 88.7845 24.792 88.0699 24.024C87.3445 23.2453 86.9819 22.232 86.9819 20.984C86.9819 19.7467 87.3392 18.7387 88.0539 17.96C88.7792 17.16 89.7179 16.76 90.8699 16.76ZM92.5019 18.648C92.0859 18.2427 91.5419 18.04 90.8699 18.04C90.1979 18.04 89.6432 18.248 89.2059 18.664C88.7685 19.0693 88.5072 19.608 88.4219 20.28H93.1419C93.1312 19.5973 92.9179 19.0533 92.5019 18.648Z" fill="white"/>
</svg>
